<?xml version="1.0" encoding="UTF-8"?>
<svg id="Layer_1" xmlns="http://www.w3.org/2000/svg" version="1.1" viewBox="0 0 1254 1254">
  <!-- Generator: Adobe Illustrator 30.4.0, SVG Export Plug-In . SVG Version: 2.1.4 Build 226)  -->
  <defs>
    <style>
      .st0 {
        fill: #f9f4ea;
      }
    </style>
  </defs>
  <path class="st0" d="M102.13,1013.65c.54-2.67,4.48-4.35,7.8-6.74,25.21-18.19,54.4-57.9,58.66-70.79,4.26-12.89,43.26,8.37,39.94,28.99-3.32,20.62-37.38,92.63-55.18,96.85-39.23,9.31-51.76-45.6-51.21-48.31Z"/>
  <path class="st0" d="M63.87,946.01c1.21-2.31,6.72-4.19,9.74-5.13,46.84-14.68,50.18-60.37,72.35-36.45,7.66,6.68,17.31,12.77,15.67,22.87-1.64,10.11-48.18,76.15-71.45,69.5-23.27-6.65-27.36-48.77-26.31-50.79Z"/>
  <path class="st0" d="M58.63,927.66c8.64,9.31,48.14-20.31,61.01-34.09,12.87-13.78-2.89-28.83-18.33-33.39-27.94,28.08-47.25,20.06-53.01,27.59-.02,13.46,1.69,30.58,10.33,39.89Z"/>
  <g>
    <path class="st0" d="M98.76,852.65c-20.69,19.25-50.31,21.02-51.13,19.16-1.84-4.21,2.19-48.79,15.43-53.89,6.73-2.59,18.28-2.09,21.76,5.27l13.93,29.46Z"/>
    <rect class="st0" x="52.69" y="842.11" width="1.23" height="1.23" transform="translate(-580.29 284.52) rotate(-45)"/>
  </g>
  <path class="st0" d="M1079.27,85.21c.62-1.82,1.38-5.79,4.98-6.08s5.83,3.52,5.83,3.52c14.95,29.85,15.34,63.8,1.95,94.65,33.91,26.05,66.29,51.94,95.82,81.73,15.08,15.21,19.17,33.28,8.01,52.48-10.31,17.74-29.2,28.93-51.04,32.23-77.02,11.63-153.54-4.32-223.49-38.77-47.94-23.61-96.22-39.4-149.91-42.94-91.99-6.07-199.37-1.41-280.1,44.76-26.48,15.14-48.27,34.46-62.69,60.71-21.38,38.93-15.01,83.76,16.65,114.85,39.49,38.79,99.47,54.47,154.25,68.06l169.68,42.1c54.63,13.55,107.03,28.57,158.92,49.86,115.08,47.2,199.11,127.98,203.71,257.88,2.81,79.36-27.45,154.12-86.23,208.28-70.42,64.88-167.69,95.63-262.03,110.64-102.47,16.31-206.69,17-309.7,3.3-114.68-15.26-220.53-65.87-304.54-147.21,22.75-26.96,48.05-84.54,49.13-98,19.06,15.07,92.68,66.24,143.56,78.17,111.25,26.1,257.99,20.52,370.14.16,58.76-10.66,128.84-32.67,163.96-80.76,30.5-41.76,24.81-96.23-13.44-130.71-42.76-38.55-110.52-58.02-167.93-71.68l-172.64-41.07c-97.79-23.27-190.53-55.66-257.35-131.44-81.54-92.48-89.62-225.37-19.51-326.7,73.77-106.63,197.63-154.04,323.85-171.13,104.38-14.14,208.85-12.04,313.08.47-6.43-24.15,4.78-68.63,15.98-81.72,2.13-2.49,2.87-4.46,6.27-3.7s4.73,3.19,4.65,4.29c-2.59,37.5,14.08,70.02,42.53,95.32,27.76,7.8,63.7,23.04,77.21,31.46,21.05-1.77,30.43-63,30.43-63ZM993.29,190.21c-4.93,20.18,6.14,42.73,24.43,51.32,14.88,6.99,33.28,9.16,49.84,1.21-24.46-20.55-47.38-37.32-74.28-52.53Z"/>
</svg>